<svg version="1.1" id="Layer_1" xmlns="http://www.w3.org/2000/svg" xmlns:xlink="http://www.w3.org/1999/xlink" x="0px" y="0px" viewBox="-639.6 486 338.6 110.4" style="enable-background:new -639.6 486 338.6 110.4;" xml:space="preserve">
 <style type="text/css">
  .st0{fill:#0000C1;}
 </style>
 <title>
  JohnHancock_rgb
 </title>
 <desc>
  Created with Sketch.
 </desc>
 <g id="Page-1">
  <g id="JohnHancock_rgb">
   <path id="Shape" class="st0" d="M-321.7,536.6c2.8,0,5.1,2.3,5.1,5.1c0,2.8-2.3,5.1-5.1,5.1c-2.8,0-5.1-2.3-5.1-5.1
			c0-1.3,0.5-2.6,1.5-3.6C-324.3,537.1-323,536.6-321.7,536.6z M-321.7,546c1.7,0.1,3.3-1,4-2.5c0.7-1.6,0.4-3.4-0.8-4.7
			s-3.1-1.6-4.7-1s-2.7,2.2-2.7,4c0,1.1,0.4,2.2,1.2,3C-323.9,545.6-322.8,546-321.7,546L-321.7,546z M-323.6,538.7h2.3
			c1.4,0,2.1,0.5,2.1,1.7c0,0.4-0.1,0.9-0.4,1.2s-0.7,0.5-1.1,0.5l1.7,2.6h-1.2l-1.7-2.6h-0.8v2.6h-1L-323.6,538.7z M-322.7,541.3
			h1.2c0.7,0,1.2-0.1,1.2-0.9c0-0.8-0.6-0.9-1.2-0.9h-1.2L-322.7,541.3z">
   </path>
   <path id="Shape_1_" class="st0" d="M-445.1,486.5c-8.9,7.6-12.8,14.2-19.2,25.4c2.3,3.7,3.6,7.9,3.8,12.3l3.5-5.4
			c6.4-9.8,15.8-22.2,28.8-28.1c0,0,0.3,0.2,0.3,0.2v0.4c-12.6,8.8-28.1,39.3-31.1,44.3c9.3-3.5,17.1-11.4,21.8-5.5l1.1-1.7h4.6
			l-7.3,13c-0.5,1.6,0.1,4.1,3.4,0.2l1.8-2.1c4.4-5.8,5.8-8.1,8.2-9.8c1.3-1.4,6-2.5,6.9,0.1l0.6,1.4c3.1-1.5,6-4.3,9.3-2.1
			c1,1.1,2.4,2,0.6,5.8c-2,3.1-1.6,2.6-3.6,5.8c-1.6,2.5-1,6.8,5.9-0.9c4.3-5.7,8.4-14,17.5-11.4c1.4,0.9,1.9,1.5,1.6,2.9
			c-0.5,0.9-1.6,1.2-2.6,0.9c-1.3-0.6-0.7-3.4-4-1.3c-2.6,2.8-4.6,6-6.2,9.5c-0.7,1.8-0.4,3.3,1.5,3.9c2.3-0.1,4.5-1.2,5.9-3.1
			c5.9-4.7,10.5-14.8,19.6-12.8c4.5,1.5,1.7,6.9,7.2,3.7c4.8-2.6,6.6-4.8,12.6-3.5c1.3,0.5,2.1,1.7,2.1,3.1
			c-0.1,0.7-0.7,1.3-1.4,1.5c-2.6,0.8-0.9-3.8-4.5-2.1c-2.4,2-4.3,4.5-5.5,7.4c-2.7,4.2-1.5,8.7,5.3,3.9c2.3-1.7,4.3-3.6,6.1-5.8
			c13-14,13.8-22.6,27.9-35.3c5.3-5.7,13.5-6.2,8.7,0.9c-0.8,1.1-1.7,2.1-2.7,3c-3.4,3.4-7.3,6.3-11.6,8.5
			c-3.6,5.1-5.8,9.6-9.2,15.2l-1.1,2.1c2.2-1.4,4.4-2.5,6.8-3.5c7.2-1.8,6.8,4.1,5.7,5.8c-3.4,5-9.4,5.4-14.6,6.4
			c6.1,4,9.1,8.8,14.2,16.7c5,0.8,9.9,2.2,14.5,4.3c2.7,1.2,5.2,2.8,7.5,4.7c9.6,9.7-1.8,15.6-13.8,7.5c-5.4-4.1-7.1-6.7-12-13.9
			c-21-2.4-42.1-2.4-63.1,0l-0.4-0.4c13.1-3.6,41.2-5.5,60.9-3.1c-2.3-3.9-7.5-14.2-10.7-15.1c-1.5,2.1-3.5,6.1-3.5,6.1h-6.4
			c1.9-3.6,4.8-8.5,6.3-11.8c-2.9,3.5-6.2,6.6-9.8,9.4c-5.9,3.8-8.7,2.5-10.7,0.6c-1.8-3-0.1-7,0.9-10.3c-1.9,0.3-1.6,1.4-3.8,0.9
			c-1.9,4-2.8,6.3-5.8,8.8c-5.1,3.9-9.3,2.8-11,0.1c-0.8-2-0.8-4.2,0-6.2c-4.1,3.9-9,10.5-15.6,7.8c-1.5-0.8-2.4-2.4-2.4-4
			c0.1-0.5,0.2-0.9,0.4-1.4c-4.9,5.7-10,7.7-13,4.7c-2.1-2.5,2.4-8.4,3.4-10.4l0.5-0.9c1.9-2.9-1.9-2.1-2.5-1.6
			c-2.3,0.8-4.3,4.2-6.1,7.4l-3.7,6.9h-6c2.5-4.7,5.1-8.8,7.6-13.4c0.1-0.6,0.2-2.5-1.9-0.9c-0.9,1.2-2.1,2.8-4.3,5.7
			c-1.7,2.3-6.5,9.8-11.1,8.8c-2.1-0.7-2.1-1.2-2.5-2.4c-0.1-0.4,0.1-1.1,0-0.8c-2,2-4.8,3.1-7.6,2.9c-1.7-0.2-3.1-1.4-3.5-3.1
			c-0.2-3.1,0.7-6.2,2.7-8.5l-0.6,0.2c-2.1,0.9-4.2,1.7-6.4,2.3c-1.9,2.9-3.4,6.3-5.3,9.3h-6.9l4.3-8.5c-2.9-0.1-5.9-0.7-8.5-1.9
			c-2.9,5.8-8.2,9.9-14.5,11.2c-5.5,1-10.9-1.7-14.9-4.1c-6.3,5-18.3,5.4-11.2-4.3c1.3-2-0.2,0.3,1.5-2.4c0.5-0.7,0.9-1.4,1.3-2.1
			c2.4-3.2-2.1-5.7-7.2,2.6c-2.1,3.5-3.1,4.7-5.9,9.5h-5.3c2.7-4.7,5.3-8.9,7.9-13.6c0.9-1.5,0.2-3.7-2.8-0.5l-0.5,0.6
			c-1.7,2.1-5.4,7.2-7.8,10.4c-4.7,5.6-11.4,3.1-8.1-2.9c1.4-2.7,1.5-2.6,2.1-3.7c0.6-1.1,1-1.9,1.2-2.4c3.3-5.1-3.5-4.3-8.7,5.8
			l-3.7,6.3h-5.5c0,0,6.9-11.8,10-17.6l-1.2,0.8c-1.8,1.9-4.3,3.1-6.9,3.2c-0.8,4-2.8,7.7-5.9,10.4c-4.9,4.3-8.7,3-10.2,2.1
			c-1.3-1.1-2-2.7-2-4.4c0.2-4.1,2.5-6.7,4.9-10c-1.8,0.5-4.1,0.6-6.3,1.4c-2.6,4.9-13.7,30.2-21.6,41.7
			c-15.8,22.2-34.7,25.4-40.6,19.6c-4.3-5.4,0.5-16.9,10.4-29.9c9.8-12,26-23.7,44.6-30.8c7.5-13.3,16.8-25.5,27.8-36.2
			c-5.7,2.9-16.5,2.6-20.9-1.3c1.4,8.5-5.6,17.5-13.3,20.3c7.2-5.3,13.4-12.7,11.6-21.3c-1.1-1.4-1.8-1.2-2.4-3.1
			c-0.3-2.4,2-2.1,3,0.8c2.1,3.1,6.8,4.9,12.2,5.2c5.6,0,11.1-2,15.4-5.6l0.3,0.6c-11.5,10.7-22.9,32.2-25.5,38.2
			c8.1-2.5,14.6-3.9,16.5-1.4c1.2,0.9,0.9,1.5,2.1,2.1c2.6,0.9,8.3-4.6,11.7-9.2c6.3-7.9,9.1-17.8,22-25.1c2.1-1,5.4,0.2,3,4.1
			c-2.1,3.6-9.6,9.8-13.6,12.5c-3.3,2.1-6.5,10.1-10.7,16.4c3.4-1.5,12.4-4.8,9.2,3.3c-1.2,2.5-2.5,4.8-3.9,7.1
			c-1.6,1.9-0.7,4.7,2.5,0.6c0.8-0.9,3.4-4.6,4.6-6c3.5-4.4,5.8-8,10.5-6.4c1.2,0.7,1.4,2.4,1.3,3.7c1.6-1.4,3.5-2.5,5.4-3.4
			c1.6-0.8,3.4-0.9,5-0.3c2.4,1.7,0.4,5.2,0,6l-4.5,7.1c-0.9,2-0.3,3.6,2.5,2.8c1.5-0.5,3-1.2,4.3-2.1c-1.2-1.3-2.3-2.4-1.3-2.8
			c0.3,0.1,2.5,1.9,2.5,1.9c6.2-4.7,11.9-10.1,16.8-16.2c-0.7-1.5-1.2-3.1-1.4-4.8c-1-4.7,1.3-16.2,13.2-16.2c0,0,1.8-5.5,1.9-5.9
			c0.8-2.7,0.9-5.6,0.1-8.3c-0.2-1.2-0.3-2.1,0.6-2.5c2.3,0.2,1.5,3,2.1,4.4c0.7,1.4,1.1,2.7,2.6,3.3c10,4.3,18.7-7.9,24.6-9.4
			L-445.1,486.5z M-525.2,501.3c-2.9,3.1-5.3,6.5-7.3,10.2c4.2-2.8,8-6.1,11.2-10C-519,499-520.9,496.5-525.2,501.3z M-318.3,500.3
			c-3.3,3-6,6.5-8.2,10.4l3.9-2.7c1.9-1.4,3.7-3,5.4-4.7C-311.9,497.8-316.1,497.9-318.3,500.3z M-486.1,509.8
			c-2.9,4-3.6,9.2-1.8,13.8c4.3-5.2,7.7-11.1,10-17.5C-481,506-484.1,507.4-486.1,509.8L-486.1,509.8z M-476.1,506.3
			c-2.5,6.7-6,12.9-10.5,18.5l-0.4,0.7c1.2,2.3,3,4.3,5.2,5.7c4.1-6.6,7.6-14.1,12.8-21.9C-470.3,507.5-474.6,506.3-476.1,506.3z
			 M-465.2,513.9l-9.9,19.9l-0.5,1c2.6,1.1,5.4,1.7,8.3,1.9C-462.5,530-461.7,521.3-465.2,513.9L-465.2,513.9z M-486.3,529.7l-2-2.6
			c-4.6,5.7-9.9,10.7-15.8,15.1c2.9,1.6,6.3,2.2,9.6,1.7c5.4-1.1,9.1-6.5,11.7-10.8L-486.3,529.7z M-444.7,531.5
			c-2,2.3-3.7,4.8-5,7.5c-1.5,2.7-1.2,4.5,0,5s2.1,0,4.3-2.1c2-2.6,3.8-5.3,5.4-8.1C-437.3,528.4-442.4,528.5-444.7,531.5
			L-444.7,531.5z M-373.4,532.7c0.7-4.3-3.2-3.3-8,3.8c-3.4,4.9-2.1,13,6,3.7c0.8-1.2,1.5-2.4,2.1-3.6c1.9-3.6-0.2-2.6-0.1-3.4
			L-373.4,532.7z M-335.4,531c-2.6,1.4-4.3,2.3-7.4,7.8c4.3-0.7,7.9-1.6,10.1-4.4C-329.9,530.5-333.1,529.7-335.4,531L-335.4,531z
			 M-584.2,535.2c-21.3,9.2-34.6,21.6-46.7,38.2c-4.7,7.5-9.5,16.4-4.8,20c6.9,3.8,19.6-1.2,35.3-29.1
			C-594.4,553.6-588.3,543.2-584.2,535.2L-584.2,535.2z M-324.1,560.5c1.6,2.4,3.5,4.6,5.7,6.6c1.5,1.2,4.1,3.9,5.8,5.1
			c10.5,7.2,14.6-1.6,4.4-7C-313.1,562.6-318.5,561-324.1,560.5L-324.1,560.5z M-473,494.8c-0.5,3.3-1.3,6.6-2.4,9.8
			c2.7,0.3,5.2,1.3,7.2,3c2.9-4.1,6.1-8,9.6-11.6C-460.6,497.8-469.5,499.9-473,494.8z M-559.7,532.3c0.4-3.2-2.9-3.5-7.5,3.7
			c-4.6,6.6-2.1,12.6,4.6,5.1c1.3-1.6,2.4-3.4,3.3-5.2c1.5-3.5-0.3-2.3-0.3-3.2L-559.7,532.3z M-549.8,492c0.3-0.3,0.8,0.1,0.4,0.5
			C-549.6,492.4-549.9,492.1-549.8,492L-549.8,492z">
   </path>
  </g>
 </g>
</svg>