<?xml version="1.0" encoding="UTF-8"?> <svg xmlns="http://www.w3.org/2000/svg" viewBox="0 0 44.53 31.12"><defs><style>.cls-1{fill:#88746a;}</style></defs><title>Asset 1</title><g id="Layer_2" data-name="Layer 2"><g id="Layer_2-2" data-name="Layer 2"><path class="cls-1" d="M0,30.48c3.11-.37,3.2-2.68,3.2-8,0-7.18-.13-11.83-.25-14a6.55,6.55,0,0,0,1.32.12,6.62,6.62,0,0,0,1.34-.12c-.06,1.24-.09,2.37-.09,3.34,0,4.66,0,8.74,0,12.33,0,4.56-1.16,6.57-5.37,7Z"></path><path class="cls-1" d="M15,30.48c3.11-.37,3.2-2.68,3.2-8,0-7.18-.12-11.83-.24-14a6.39,6.39,0,0,0,1.31.12,6.49,6.49,0,0,0,1.34-.12c-.06,1.24-.09,2.37-.09,3.34,0,4.66,0,8.74,0,12.33,0,4.56-1.16,6.57-5.36,7Z"></path><path class="cls-1" d="M26.43,15.27c0-2.32-.06-4.6-.16-6.82a6,6,0,0,0,1.26.12,5.76,5.76,0,0,0,1.25-.12c-.09,2.25-.16,4.5-.16,6.82,0,2.53.07,5.06.16,7.56a5.78,5.78,0,0,0-1.25-.15,6,6,0,0,0-1.26.15c.1-2.5.16-5,.16-7.56"></path><path class="cls-1" d="M34.37,13.94V6c0-2.32,0-4.3-.12-6,.4,0,.82.06,1.21.06s.89,0,1.31-.06c-.15,2.8-.15,5.93-.15,9.37,0,6.33,0,10.81.15,13.46a10,10,0,0,0-1.31-.09,8,8,0,0,0-1.21.09c.12-2,.12-5,.12-8.89"></path><path class="cls-1" d="M42.13,13.94V6c0-2.32,0-4.3-.12-6,.4,0,.82.06,1.22.06s.88,0,1.3-.06c-.15,2.8-.15,5.93-.15,9.37,0,6.33,0,10.81.15,13.46a9.8,9.8,0,0,0-1.3-.09,8,8,0,0,0-1.22.09c.12-2,.12-5,.12-8.89"></path><path class="cls-1" d="M10,21.32a5.24,5.24,0,0,0-.15-1.19c.42,0,.82,0,1.25,0s.85,0,1.25,0a5.24,5.24,0,0,0-.15,1.19,6.42,6.42,0,0,0,.15,1.31l-1.25,0-1.25,0A6.42,6.42,0,0,0,10,21.32"></path></g></g></svg> 